<mxfile host="app.diagrams.net" modified="2023-10-09T19:36:53.830Z" agent="Mozilla/5.0 (Windows NT 10.0; Win64; x64) AppleWebKit/537.36 (KHTML, like Gecko) Chrome/117.0.0.0 Safari/537.36" etag="VIvMN8_kxXpv5uvNbgQF" version="21.2.1" type="github">
  <diagram name="PÃ¡gina-1" id="ktos8gUdrFeBo976G_Gd">
    <mxGraphModel dx="2333" dy="1204" grid="1" gridSize="10" guides="1" tooltips="1" connect="1" arrows="1" fold="1" page="1" pageScale="1" pageWidth="827" pageHeight="1169" math="0" shadow="0">
      <root>
        <mxCell id="0" />
        <mxCell id="1" parent="0" />
        <mxCell id="_UlSirYJqNhjkGr410jS-20" style="edgeStyle=orthogonalEdgeStyle;rounded=0;orthogonalLoop=1;jettySize=auto;html=1;exitX=0.5;exitY=1;exitDx=0;exitDy=0;entryX=0.5;entryY=0;entryDx=0;entryDy=0;" edge="1" parent="1" source="_UlSirYJqNhjkGr410jS-1" target="_UlSirYJqNhjkGr410jS-12">
          <mxGeometry relative="1" as="geometry" />
        </mxCell>
        <mxCell id="_UlSirYJqNhjkGr410jS-1" value="" style="rounded=0;whiteSpace=wrap;html=1;" vertex="1" parent="1">
          <mxGeometry x="190" y="40" width="120" height="30" as="geometry" />
        </mxCell>
        <mxCell id="_UlSirYJqNhjkGr410jS-23" style="edgeStyle=orthogonalEdgeStyle;rounded=0;orthogonalLoop=1;jettySize=auto;html=1;exitX=0.5;exitY=1;exitDx=0;exitDy=0;" edge="1" parent="1" source="_UlSirYJqNhjkGr410jS-2" target="_UlSirYJqNhjkGr410jS-5">
          <mxGeometry relative="1" as="geometry" />
        </mxCell>
        <mxCell id="_UlSirYJqNhjkGr410jS-2" value="" style="rounded=0;whiteSpace=wrap;html=1;" vertex="1" parent="1">
          <mxGeometry x="190" y="200" width="120" height="60" as="geometry" />
        </mxCell>
        <mxCell id="_UlSirYJqNhjkGr410jS-33" style="edgeStyle=orthogonalEdgeStyle;rounded=0;orthogonalLoop=1;jettySize=auto;html=1;exitX=0.5;exitY=1;exitDx=0;exitDy=0;entryX=0.5;entryY=0;entryDx=0;entryDy=0;" edge="1" parent="1" source="_UlSirYJqNhjkGr410jS-3" target="_UlSirYJqNhjkGr410jS-4">
          <mxGeometry relative="1" as="geometry" />
        </mxCell>
        <mxCell id="_UlSirYJqNhjkGr410jS-3" value="" style="rounded=0;whiteSpace=wrap;html=1;" vertex="1" parent="1">
          <mxGeometry x="450" y="200" width="120" height="60" as="geometry" />
        </mxCell>
        <mxCell id="_UlSirYJqNhjkGr410jS-34" style="edgeStyle=orthogonalEdgeStyle;rounded=0;orthogonalLoop=1;jettySize=auto;html=1;exitX=0.5;exitY=1;exitDx=0;exitDy=0;entryX=0.5;entryY=0;entryDx=0;entryDy=0;" edge="1" parent="1" source="_UlSirYJqNhjkGr410jS-4" target="_UlSirYJqNhjkGr410jS-6">
          <mxGeometry relative="1" as="geometry" />
        </mxCell>
        <mxCell id="_UlSirYJqNhjkGr410jS-4" value="" style="rounded=0;whiteSpace=wrap;html=1;" vertex="1" parent="1">
          <mxGeometry x="450" y="300" width="120" height="50" as="geometry" />
        </mxCell>
        <mxCell id="_UlSirYJqNhjkGr410jS-24" style="edgeStyle=orthogonalEdgeStyle;rounded=0;orthogonalLoop=1;jettySize=auto;html=1;exitX=0.5;exitY=1;exitDx=0;exitDy=0;entryX=0.5;entryY=0;entryDx=0;entryDy=0;" edge="1" parent="1" source="_UlSirYJqNhjkGr410jS-5" target="_UlSirYJqNhjkGr410jS-15">
          <mxGeometry relative="1" as="geometry" />
        </mxCell>
        <mxCell id="_UlSirYJqNhjkGr410jS-5" value="" style="rounded=0;whiteSpace=wrap;html=1;" vertex="1" parent="1">
          <mxGeometry x="190" y="300" width="120" height="30" as="geometry" />
        </mxCell>
        <mxCell id="_UlSirYJqNhjkGr410jS-35" style="edgeStyle=orthogonalEdgeStyle;rounded=0;orthogonalLoop=1;jettySize=auto;html=1;exitX=0.5;exitY=1;exitDx=0;exitDy=0;entryX=0.5;entryY=0;entryDx=0;entryDy=0;" edge="1" parent="1" source="_UlSirYJqNhjkGr410jS-6" target="_UlSirYJqNhjkGr410jS-14">
          <mxGeometry relative="1" as="geometry" />
        </mxCell>
        <mxCell id="_UlSirYJqNhjkGr410jS-6" value="" style="rounded=0;whiteSpace=wrap;html=1;" vertex="1" parent="1">
          <mxGeometry x="450" y="370" width="120" height="30" as="geometry" />
        </mxCell>
        <mxCell id="_UlSirYJqNhjkGr410jS-26" style="edgeStyle=orthogonalEdgeStyle;rounded=0;orthogonalLoop=1;jettySize=auto;html=1;exitX=0.5;exitY=1;exitDx=0;exitDy=0;entryX=0.5;entryY=0;entryDx=0;entryDy=0;" edge="1" parent="1" source="_UlSirYJqNhjkGr410jS-7" target="_UlSirYJqNhjkGr410jS-9">
          <mxGeometry relative="1" as="geometry" />
        </mxCell>
        <mxCell id="_UlSirYJqNhjkGr410jS-7" value="" style="rounded=0;whiteSpace=wrap;html=1;" vertex="1" parent="1">
          <mxGeometry x="190" y="440" width="120" height="50" as="geometry" />
        </mxCell>
        <mxCell id="_UlSirYJqNhjkGr410jS-37" style="edgeStyle=orthogonalEdgeStyle;rounded=0;orthogonalLoop=1;jettySize=auto;html=1;exitX=0.5;exitY=1;exitDx=0;exitDy=0;entryX=0.5;entryY=0;entryDx=0;entryDy=0;" edge="1" parent="1" source="_UlSirYJqNhjkGr410jS-8" target="_UlSirYJqNhjkGr410jS-10">
          <mxGeometry relative="1" as="geometry" />
        </mxCell>
        <mxCell id="_UlSirYJqNhjkGr410jS-8" value="" style="rounded=0;whiteSpace=wrap;html=1;" vertex="1" parent="1">
          <mxGeometry x="450" y="510" width="120" height="50" as="geometry" />
        </mxCell>
        <mxCell id="_UlSirYJqNhjkGr410jS-27" style="edgeStyle=orthogonalEdgeStyle;rounded=0;orthogonalLoop=1;jettySize=auto;html=1;exitX=0.5;exitY=1;exitDx=0;exitDy=0;entryX=0.5;entryY=0;entryDx=0;entryDy=0;" edge="1" parent="1" source="_UlSirYJqNhjkGr410jS-9" target="_UlSirYJqNhjkGr410jS-16">
          <mxGeometry relative="1" as="geometry" />
        </mxCell>
        <mxCell id="_UlSirYJqNhjkGr410jS-9" value="" style="rounded=0;whiteSpace=wrap;html=1;" vertex="1" parent="1">
          <mxGeometry x="190" y="520" width="120" height="30" as="geometry" />
        </mxCell>
        <mxCell id="_UlSirYJqNhjkGr410jS-38" style="edgeStyle=orthogonalEdgeStyle;rounded=0;orthogonalLoop=1;jettySize=auto;html=1;exitX=0.5;exitY=1;exitDx=0;exitDy=0;entryX=0.5;entryY=0;entryDx=0;entryDy=0;" edge="1" parent="1" source="_UlSirYJqNhjkGr410jS-10" target="_UlSirYJqNhjkGr410jS-17">
          <mxGeometry relative="1" as="geometry" />
        </mxCell>
        <mxCell id="_UlSirYJqNhjkGr410jS-10" value="" style="rounded=0;whiteSpace=wrap;html=1;" vertex="1" parent="1">
          <mxGeometry x="450" y="600" width="120" height="30" as="geometry" />
        </mxCell>
        <mxCell id="_UlSirYJqNhjkGr410jS-43" style="edgeStyle=orthogonalEdgeStyle;rounded=0;orthogonalLoop=1;jettySize=auto;html=1;exitX=0.5;exitY=0;exitDx=0;exitDy=0;entryX=1;entryY=0.5;entryDx=0;entryDy=0;" edge="1" parent="1" source="_UlSirYJqNhjkGr410jS-11" target="_UlSirYJqNhjkGr410jS-3">
          <mxGeometry relative="1" as="geometry" />
        </mxCell>
        <mxCell id="_UlSirYJqNhjkGr410jS-11" value="" style="rounded=0;whiteSpace=wrap;html=1;" vertex="1" parent="1">
          <mxGeometry x="630" y="430" width="120" height="50" as="geometry" />
        </mxCell>
        <mxCell id="_UlSirYJqNhjkGr410jS-21" style="edgeStyle=orthogonalEdgeStyle;rounded=0;orthogonalLoop=1;jettySize=auto;html=1;exitX=1;exitY=0.5;exitDx=0;exitDy=0;entryX=0;entryY=0.5;entryDx=0;entryDy=0;" edge="1" parent="1" source="_UlSirYJqNhjkGr410jS-12" target="_UlSirYJqNhjkGr410jS-13">
          <mxGeometry relative="1" as="geometry" />
        </mxCell>
        <mxCell id="_UlSirYJqNhjkGr410jS-22" style="edgeStyle=orthogonalEdgeStyle;rounded=0;orthogonalLoop=1;jettySize=auto;html=1;exitX=0.5;exitY=1;exitDx=0;exitDy=0;entryX=0.5;entryY=0;entryDx=0;entryDy=0;" edge="1" parent="1" source="_UlSirYJqNhjkGr410jS-12" target="_UlSirYJqNhjkGr410jS-2">
          <mxGeometry relative="1" as="geometry" />
        </mxCell>
        <mxCell id="_UlSirYJqNhjkGr410jS-12" value="" style="rhombus;whiteSpace=wrap;html=1;" vertex="1" parent="1">
          <mxGeometry x="210" y="130" width="80" height="50" as="geometry" />
        </mxCell>
        <mxCell id="_UlSirYJqNhjkGr410jS-31" style="edgeStyle=orthogonalEdgeStyle;rounded=0;orthogonalLoop=1;jettySize=auto;html=1;exitX=0.5;exitY=0;exitDx=0;exitDy=0;entryX=1;entryY=0.75;entryDx=0;entryDy=0;" edge="1" parent="1" source="_UlSirYJqNhjkGr410jS-13" target="_UlSirYJqNhjkGr410jS-1">
          <mxGeometry relative="1" as="geometry" />
        </mxCell>
        <mxCell id="_UlSirYJqNhjkGr410jS-32" style="edgeStyle=orthogonalEdgeStyle;rounded=0;orthogonalLoop=1;jettySize=auto;html=1;exitX=0.5;exitY=1;exitDx=0;exitDy=0;entryX=0.5;entryY=0;entryDx=0;entryDy=0;" edge="1" parent="1" source="_UlSirYJqNhjkGr410jS-13" target="_UlSirYJqNhjkGr410jS-3">
          <mxGeometry relative="1" as="geometry" />
        </mxCell>
        <mxCell id="_UlSirYJqNhjkGr410jS-13" value="" style="rhombus;whiteSpace=wrap;html=1;" vertex="1" parent="1">
          <mxGeometry x="470" y="130" width="80" height="50" as="geometry" />
        </mxCell>
        <mxCell id="_UlSirYJqNhjkGr410jS-36" style="edgeStyle=orthogonalEdgeStyle;rounded=0;orthogonalLoop=1;jettySize=auto;html=1;exitX=0.5;exitY=1;exitDx=0;exitDy=0;entryX=0.5;entryY=0;entryDx=0;entryDy=0;" edge="1" parent="1" source="_UlSirYJqNhjkGr410jS-14" target="_UlSirYJqNhjkGr410jS-8">
          <mxGeometry relative="1" as="geometry" />
        </mxCell>
        <mxCell id="_UlSirYJqNhjkGr410jS-41" style="edgeStyle=orthogonalEdgeStyle;rounded=0;orthogonalLoop=1;jettySize=auto;html=1;exitX=1;exitY=0.5;exitDx=0;exitDy=0;entryX=1;entryY=0.5;entryDx=0;entryDy=0;" edge="1" parent="1" source="_UlSirYJqNhjkGr410jS-14" target="_UlSirYJqNhjkGr410jS-6">
          <mxGeometry relative="1" as="geometry">
            <Array as="points">
              <mxPoint x="600" y="455" />
              <mxPoint x="600" y="385" />
            </Array>
          </mxGeometry>
        </mxCell>
        <mxCell id="_UlSirYJqNhjkGr410jS-14" value="" style="rhombus;whiteSpace=wrap;html=1;" vertex="1" parent="1">
          <mxGeometry x="470" y="430" width="80" height="50" as="geometry" />
        </mxCell>
        <mxCell id="_UlSirYJqNhjkGr410jS-25" style="edgeStyle=orthogonalEdgeStyle;rounded=0;orthogonalLoop=1;jettySize=auto;html=1;exitX=0.5;exitY=1;exitDx=0;exitDy=0;entryX=0.5;entryY=0;entryDx=0;entryDy=0;" edge="1" parent="1" source="_UlSirYJqNhjkGr410jS-15" target="_UlSirYJqNhjkGr410jS-7">
          <mxGeometry relative="1" as="geometry" />
        </mxCell>
        <mxCell id="_UlSirYJqNhjkGr410jS-30" style="edgeStyle=orthogonalEdgeStyle;rounded=0;orthogonalLoop=1;jettySize=auto;html=1;exitX=1;exitY=0.5;exitDx=0;exitDy=0;entryX=1;entryY=0.5;entryDx=0;entryDy=0;" edge="1" parent="1" source="_UlSirYJqNhjkGr410jS-15" target="_UlSirYJqNhjkGr410jS-5">
          <mxGeometry relative="1" as="geometry">
            <Array as="points">
              <mxPoint x="360" y="385" />
              <mxPoint x="360" y="315" />
            </Array>
          </mxGeometry>
        </mxCell>
        <mxCell id="_UlSirYJqNhjkGr410jS-15" value="" style="rhombus;whiteSpace=wrap;html=1;" vertex="1" parent="1">
          <mxGeometry x="210" y="360" width="80" height="50" as="geometry" />
        </mxCell>
        <mxCell id="_UlSirYJqNhjkGr410jS-28" style="edgeStyle=orthogonalEdgeStyle;rounded=0;orthogonalLoop=1;jettySize=auto;html=1;exitX=1;exitY=0.5;exitDx=0;exitDy=0;entryX=1;entryY=0.5;entryDx=0;entryDy=0;" edge="1" parent="1" source="_UlSirYJqNhjkGr410jS-16" target="_UlSirYJqNhjkGr410jS-9">
          <mxGeometry relative="1" as="geometry">
            <mxPoint x="350" y="540" as="targetPoint" />
            <Array as="points">
              <mxPoint x="360" y="605" />
              <mxPoint x="360" y="535" />
            </Array>
          </mxGeometry>
        </mxCell>
        <mxCell id="_UlSirYJqNhjkGr410jS-29" style="edgeStyle=orthogonalEdgeStyle;rounded=0;orthogonalLoop=1;jettySize=auto;html=1;exitX=0;exitY=0.5;exitDx=0;exitDy=0;entryX=0;entryY=0.5;entryDx=0;entryDy=0;" edge="1" parent="1" source="_UlSirYJqNhjkGr410jS-16" target="_UlSirYJqNhjkGr410jS-1">
          <mxGeometry relative="1" as="geometry">
            <mxPoint x="120" y="220" as="targetPoint" />
            <Array as="points">
              <mxPoint x="80" y="605" />
              <mxPoint x="80" y="55" />
            </Array>
          </mxGeometry>
        </mxCell>
        <mxCell id="_UlSirYJqNhjkGr410jS-16" value="" style="rhombus;whiteSpace=wrap;html=1;" vertex="1" parent="1">
          <mxGeometry x="210" y="580" width="80" height="50" as="geometry" />
        </mxCell>
        <mxCell id="_UlSirYJqNhjkGr410jS-39" style="edgeStyle=orthogonalEdgeStyle;rounded=0;orthogonalLoop=1;jettySize=auto;html=1;exitX=0.5;exitY=1;exitDx=0;exitDy=0;entryX=0.5;entryY=0;entryDx=0;entryDy=0;" edge="1" parent="1" source="_UlSirYJqNhjkGr410jS-17" target="_UlSirYJqNhjkGr410jS-18">
          <mxGeometry relative="1" as="geometry" />
        </mxCell>
        <mxCell id="_UlSirYJqNhjkGr410jS-40" style="edgeStyle=orthogonalEdgeStyle;rounded=0;orthogonalLoop=1;jettySize=auto;html=1;exitX=1;exitY=0.5;exitDx=0;exitDy=0;entryX=1;entryY=0.5;entryDx=0;entryDy=0;" edge="1" parent="1" source="_UlSirYJqNhjkGr410jS-17" target="_UlSirYJqNhjkGr410jS-10">
          <mxGeometry relative="1" as="geometry">
            <Array as="points">
              <mxPoint x="600" y="675" />
              <mxPoint x="600" y="615" />
            </Array>
          </mxGeometry>
        </mxCell>
        <mxCell id="_UlSirYJqNhjkGr410jS-17" value="" style="rhombus;whiteSpace=wrap;html=1;" vertex="1" parent="1">
          <mxGeometry x="470" y="650" width="80" height="50" as="geometry" />
        </mxCell>
        <mxCell id="_UlSirYJqNhjkGr410jS-42" style="edgeStyle=orthogonalEdgeStyle;rounded=0;orthogonalLoop=1;jettySize=auto;html=1;exitX=1;exitY=0.5;exitDx=0;exitDy=0;entryX=0.5;entryY=1;entryDx=0;entryDy=0;" edge="1" parent="1" source="_UlSirYJqNhjkGr410jS-18" target="_UlSirYJqNhjkGr410jS-11">
          <mxGeometry relative="1" as="geometry" />
        </mxCell>
        <mxCell id="_UlSirYJqNhjkGr410jS-44" style="edgeStyle=orthogonalEdgeStyle;rounded=0;orthogonalLoop=1;jettySize=auto;html=1;exitX=0.5;exitY=1;exitDx=0;exitDy=0;entryX=1;entryY=0.25;entryDx=0;entryDy=0;" edge="1" parent="1" source="_UlSirYJqNhjkGr410jS-18" target="_UlSirYJqNhjkGr410jS-1">
          <mxGeometry relative="1" as="geometry">
            <mxPoint x="790" y="490" as="targetPoint" />
            <Array as="points">
              <mxPoint x="510" y="800" />
              <mxPoint x="790" y="800" />
              <mxPoint x="790" y="48" />
            </Array>
          </mxGeometry>
        </mxCell>
        <mxCell id="_UlSirYJqNhjkGr410jS-18" value="" style="rhombus;whiteSpace=wrap;html=1;" vertex="1" parent="1">
          <mxGeometry x="470" y="730" width="80" height="50" as="geometry" />
        </mxCell>
        <mxCell id="_UlSirYJqNhjkGr410jS-45" value="E0" style="text;html=1;strokeColor=none;fillColor=none;align=center;verticalAlign=middle;whiteSpace=wrap;rounded=0;" vertex="1" parent="1">
          <mxGeometry x="160" y="10" width="60" height="30" as="geometry" />
        </mxCell>
        <mxCell id="_UlSirYJqNhjkGr410jS-46" value="E1" style="text;html=1;strokeColor=none;fillColor=none;align=center;verticalAlign=middle;whiteSpace=wrap;rounded=0;" vertex="1" parent="1">
          <mxGeometry x="150" y="180" width="60" height="30" as="geometry" />
        </mxCell>
        <mxCell id="_UlSirYJqNhjkGr410jS-47" value="E2" style="text;html=1;strokeColor=none;fillColor=none;align=center;verticalAlign=middle;whiteSpace=wrap;rounded=0;" vertex="1" parent="1">
          <mxGeometry x="150" y="280" width="60" height="30" as="geometry" />
        </mxCell>
        <mxCell id="_UlSirYJqNhjkGr410jS-48" value="E3" style="text;html=1;strokeColor=none;fillColor=none;align=center;verticalAlign=middle;whiteSpace=wrap;rounded=0;" vertex="1" parent="1">
          <mxGeometry x="150" y="420" width="60" height="30" as="geometry" />
        </mxCell>
        <mxCell id="_UlSirYJqNhjkGr410jS-49" value="E4" style="text;html=1;strokeColor=none;fillColor=none;align=center;verticalAlign=middle;whiteSpace=wrap;rounded=0;" vertex="1" parent="1">
          <mxGeometry x="150" y="500" width="60" height="30" as="geometry" />
        </mxCell>
        <mxCell id="_UlSirYJqNhjkGr410jS-50" value="E5" style="text;html=1;strokeColor=none;fillColor=none;align=center;verticalAlign=middle;whiteSpace=wrap;rounded=0;" vertex="1" parent="1">
          <mxGeometry x="410" y="180" width="60" height="30" as="geometry" />
        </mxCell>
        <mxCell id="_UlSirYJqNhjkGr410jS-51" value="E6" style="text;html=1;strokeColor=none;fillColor=none;align=center;verticalAlign=middle;whiteSpace=wrap;rounded=0;" vertex="1" parent="1">
          <mxGeometry x="410" y="280" width="60" height="30" as="geometry" />
        </mxCell>
        <mxCell id="_UlSirYJqNhjkGr410jS-52" value="E7" style="text;html=1;strokeColor=none;fillColor=none;align=center;verticalAlign=middle;whiteSpace=wrap;rounded=0;" vertex="1" parent="1">
          <mxGeometry x="410" y="350" width="60" height="30" as="geometry" />
        </mxCell>
        <mxCell id="_UlSirYJqNhjkGr410jS-53" value="E8" style="text;html=1;strokeColor=none;fillColor=none;align=center;verticalAlign=middle;whiteSpace=wrap;rounded=0;" vertex="1" parent="1">
          <mxGeometry x="410" y="490" width="60" height="30" as="geometry" />
        </mxCell>
        <mxCell id="_UlSirYJqNhjkGr410jS-54" value="E9" style="text;html=1;strokeColor=none;fillColor=none;align=center;verticalAlign=middle;whiteSpace=wrap;rounded=0;" vertex="1" parent="1">
          <mxGeometry x="410" y="580" width="60" height="30" as="geometry" />
        </mxCell>
        <mxCell id="_UlSirYJqNhjkGr410jS-55" value="E10" style="text;html=1;strokeColor=none;fillColor=none;align=center;verticalAlign=middle;whiteSpace=wrap;rounded=0;" vertex="1" parent="1">
          <mxGeometry x="590" y="410" width="60" height="30" as="geometry" />
        </mxCell>
        <mxCell id="_UlSirYJqNhjkGr410jS-56" value="&lt;font style=&quot;font-size: 10px;&quot;&gt;DEL_SCREEN&lt;/font&gt;" style="text;html=1;strokeColor=none;fillColor=none;align=center;verticalAlign=middle;whiteSpace=wrap;rounded=0;" vertex="1" parent="1">
          <mxGeometry x="205" y="130" width="90" height="50" as="geometry" />
        </mxCell>
        <mxCell id="_UlSirYJqNhjkGr410jS-57" value="DRAWFIG" style="text;html=1;strokeColor=none;fillColor=none;align=center;verticalAlign=middle;whiteSpace=wrap;rounded=0;" vertex="1" parent="1">
          <mxGeometry x="480" y="140" width="60" height="30" as="geometry" />
        </mxCell>
        <mxCell id="_UlSirYJqNhjkGr410jS-58" value="LD_X&lt;br&gt;LD_Y&lt;br&gt;OP_SET_CURSOR" style="text;html=1;strokeColor=none;fillColor=none;align=center;verticalAlign=middle;whiteSpace=wrap;rounded=0;" vertex="1" parent="1">
          <mxGeometry x="220" y="215" width="60" height="30" as="geometry" />
        </mxCell>
        <mxCell id="_UlSirYJqNhjkGr410jS-59" value="LD_X&lt;br&gt;LD_Y&lt;br&gt;LD_DIAG" style="text;html=1;strokeColor=none;fillColor=none;align=center;verticalAlign=middle;whiteSpace=wrap;rounded=0;" vertex="1" parent="1">
          <mxGeometry x="480" y="215" width="60" height="30" as="geometry" />
        </mxCell>
        <mxCell id="_UlSirYJqNhjkGr410jS-60" value="INC_DIAG&lt;br&gt;OP_SET_CURSOR" style="text;html=1;strokeColor=none;fillColor=none;align=center;verticalAlign=middle;whiteSpace=wrap;rounded=0;" vertex="1" parent="1">
          <mxGeometry x="480" y="310" width="60" height="30" as="geometry" />
        </mxCell>
        <mxCell id="_UlSirYJqNhjkGr410jS-61" value="&lt;font style=&quot;font-size: 9px;&quot;&gt;DONE_CURSOR&lt;/font&gt;" style="text;html=1;strokeColor=none;fillColor=none;align=center;verticalAlign=middle;whiteSpace=wrap;rounded=0;" vertex="1" parent="1">
          <mxGeometry x="220" y="370" width="60" height="30" as="geometry" />
        </mxCell>
        <mxCell id="_UlSirYJqNhjkGr410jS-62" value="&lt;font style=&quot;font-size: 9px;&quot;&gt;DONE_CURSOR&lt;/font&gt;" style="text;html=1;strokeColor=none;fillColor=none;align=center;verticalAlign=middle;whiteSpace=wrap;rounded=0;" vertex="1" parent="1">
          <mxGeometry x="480" y="440" width="60" height="30" as="geometry" />
        </mxCell>
        <mxCell id="_UlSirYJqNhjkGr410jS-63" value="LD_COLOUR&lt;br&gt;OP_DRAWCOLOUR" style="text;html=1;strokeColor=none;fillColor=none;align=center;verticalAlign=middle;whiteSpace=wrap;rounded=0;" vertex="1" parent="1">
          <mxGeometry x="220" y="450" width="60" height="30" as="geometry" />
        </mxCell>
        <mxCell id="_UlSirYJqNhjkGr410jS-64" value="LD_COLOUR&lt;br&gt;OP_DRAWCOLOUR&lt;br&gt;B/D" style="text;html=1;strokeColor=none;fillColor=none;align=center;verticalAlign=middle;whiteSpace=wrap;rounded=0;" vertex="1" parent="1">
          <mxGeometry x="480" y="520" width="60" height="30" as="geometry" />
        </mxCell>
        <mxCell id="_UlSirYJqNhjkGr410jS-65" value="LD_X&lt;br&gt;LD_Y" style="text;html=1;strokeColor=none;fillColor=none;align=center;verticalAlign=middle;whiteSpace=wrap;rounded=0;" vertex="1" parent="1">
          <mxGeometry x="660" y="440" width="60" height="30" as="geometry" />
        </mxCell>
        <mxCell id="_UlSirYJqNhjkGr410jS-66" value="&lt;font style=&quot;font-size: 8px;&quot;&gt;DONE_COLOUR&lt;/font&gt;" style="text;html=1;strokeColor=none;fillColor=none;align=center;verticalAlign=middle;whiteSpace=wrap;rounded=0;" vertex="1" parent="1">
          <mxGeometry x="220" y="590" width="60" height="30" as="geometry" />
        </mxCell>
        <mxCell id="_UlSirYJqNhjkGr410jS-67" value="&lt;font style=&quot;font-size: 8px;&quot;&gt;DONE_COLOUR&lt;/font&gt;" style="text;html=1;strokeColor=none;fillColor=none;align=center;verticalAlign=middle;whiteSpace=wrap;rounded=0;" vertex="1" parent="1">
          <mxGeometry x="480" y="660" width="60" height="30" as="geometry" />
        </mxCell>
        <mxCell id="_UlSirYJqNhjkGr410jS-68" value="&lt;font style=&quot;font-size: 8px;&quot;&gt;OUT_DIAG&lt;/font&gt;" style="text;html=1;strokeColor=none;fillColor=none;align=center;verticalAlign=middle;whiteSpace=wrap;rounded=0;" vertex="1" parent="1">
          <mxGeometry x="480" y="740" width="60" height="30" as="geometry" />
        </mxCell>
        <mxCell id="_UlSirYJqNhjkGr410jS-69" value="0" style="text;html=1;strokeColor=none;fillColor=none;align=center;verticalAlign=middle;whiteSpace=wrap;rounded=0;" vertex="1" parent="1">
          <mxGeometry x="280" y="130" width="60" height="30" as="geometry" />
        </mxCell>
        <mxCell id="_UlSirYJqNhjkGr410jS-70" value="0" style="text;html=1;strokeColor=none;fillColor=none;align=center;verticalAlign=middle;whiteSpace=wrap;rounded=0;" vertex="1" parent="1">
          <mxGeometry x="490" y="100" width="60" height="30" as="geometry" />
        </mxCell>
        <mxCell id="_UlSirYJqNhjkGr410jS-71" value="0" style="text;html=1;strokeColor=none;fillColor=none;align=center;verticalAlign=middle;whiteSpace=wrap;rounded=0;" vertex="1" parent="1">
          <mxGeometry x="280" y="360" width="60" height="30" as="geometry" />
        </mxCell>
        <mxCell id="_UlSirYJqNhjkGr410jS-72" value="0" style="text;html=1;strokeColor=none;fillColor=none;align=center;verticalAlign=middle;whiteSpace=wrap;rounded=0;" vertex="1" parent="1">
          <mxGeometry x="530" y="430" width="60" height="30" as="geometry" />
        </mxCell>
        <mxCell id="_UlSirYJqNhjkGr410jS-73" value="0" style="text;html=1;strokeColor=none;fillColor=none;align=center;verticalAlign=middle;whiteSpace=wrap;rounded=0;" vertex="1" parent="1">
          <mxGeometry x="270" y="580" width="60" height="30" as="geometry" />
        </mxCell>
        <mxCell id="_UlSirYJqNhjkGr410jS-74" value="0" style="text;html=1;strokeColor=none;fillColor=none;align=center;verticalAlign=middle;whiteSpace=wrap;rounded=0;" vertex="1" parent="1">
          <mxGeometry x="530" y="650" width="60" height="30" as="geometry" />
        </mxCell>
        <mxCell id="_UlSirYJqNhjkGr410jS-75" value="0" style="text;html=1;strokeColor=none;fillColor=none;align=center;verticalAlign=middle;whiteSpace=wrap;rounded=0;" vertex="1" parent="1">
          <mxGeometry x="540" y="720" width="60" height="30" as="geometry" />
        </mxCell>
        <mxCell id="_UlSirYJqNhjkGr410jS-76" value="1" style="text;html=1;strokeColor=none;fillColor=none;align=center;verticalAlign=middle;whiteSpace=wrap;rounded=0;" vertex="1" parent="1">
          <mxGeometry x="530" y="770" width="60" height="30" as="geometry" />
        </mxCell>
        <mxCell id="_UlSirYJqNhjkGr410jS-77" value="1" style="text;html=1;strokeColor=none;fillColor=none;align=center;verticalAlign=middle;whiteSpace=wrap;rounded=0;" vertex="1" parent="1">
          <mxGeometry x="490" y="690" width="60" height="30" as="geometry" />
        </mxCell>
        <mxCell id="_UlSirYJqNhjkGr410jS-78" value="1" style="text;html=1;strokeColor=none;fillColor=none;align=center;verticalAlign=middle;whiteSpace=wrap;rounded=0;" vertex="1" parent="1">
          <mxGeometry x="490" y="470" width="60" height="30" as="geometry" />
        </mxCell>
        <mxCell id="_UlSirYJqNhjkGr410jS-79" value="1" style="text;html=1;strokeColor=none;fillColor=none;align=center;verticalAlign=middle;whiteSpace=wrap;rounded=0;" vertex="1" parent="1">
          <mxGeometry x="160" y="580" width="60" height="30" as="geometry" />
        </mxCell>
        <mxCell id="_UlSirYJqNhjkGr410jS-80" value="1" style="text;html=1;strokeColor=none;fillColor=none;align=center;verticalAlign=middle;whiteSpace=wrap;rounded=0;" vertex="1" parent="1">
          <mxGeometry x="230" y="400" width="60" height="30" as="geometry" />
        </mxCell>
        <mxCell id="_UlSirYJqNhjkGr410jS-81" value="1" style="text;html=1;strokeColor=none;fillColor=none;align=center;verticalAlign=middle;whiteSpace=wrap;rounded=0;" vertex="1" parent="1">
          <mxGeometry x="235" y="170" width="60" height="30" as="geometry" />
        </mxCell>
        <mxCell id="_UlSirYJqNhjkGr410jS-82" value="1" style="text;html=1;strokeColor=none;fillColor=none;align=center;verticalAlign=middle;whiteSpace=wrap;rounded=0;" vertex="1" parent="1">
          <mxGeometry x="490" y="170" width="60" height="30" as="geometry" />
        </mxCell>
      </root>
    </mxGraphModel>
  </diagram>
</mxfile>
